<?xml version="1.0" encoding="UTF-8"?>
<svg width="17px" height="24px" viewBox="0 0 17 24" version="1.1" xmlns="http://www.w3.org/2000/svg" xmlns:xlink="http://www.w3.org/1999/xlink">
    <!-- Generator: Sketch 52.2 (67145) - http://www.bohemiancoding.com/sketch -->
    <title>lock</title>
    <desc>Created with Sketch.</desc>
    <g id="Symbols" stroke="none" stroke-width="1" fill="none" fill-rule="evenodd">
        <g id="TOP" transform="translate(-941.000000, -24.000000)">
            <g id="Group-2">
                <g transform="translate(937.000000, 24.000000)">
                    <g id="lock">
                        <g id="lock_icon">
                            <rect id="Rectangle" fill-rule="nonzero" x="0" y="0" width="24" height="24"></rect>
                            <path d="M9.1,8.57142857 L15.9,8.57142857 L15.9,5.01098901 C15.9,3.19636824 14.38361,1.71428571 12.5,1.71428571 C10.61639,1.71428571 9.1,3.19636824 9.1,5.01098901 L9.1,8.57142857 Z M17.6,8.77326687 C19.5667602,9.36758001 21,11.2067373 21,13.3834586 L21,19.1879699 C21,21.8455808 18.8635342,24 16.2280702,24 L8.77192982,24 C6.13646576,24 4,21.8455808 4,19.1879699 L4,13.3834586 C4,11.2067373 5.43323977,9.36758001 7.4,8.77326687 L7.4,5.01098901 C7.4,2.23739801 9.68918963,-1.42108547e-14 12.5,-1.42108547e-14 C15.3108104,-1.42108547e-14 17.6,2.23739801 17.6,5.01098901 L17.6,8.77326687 Z M8.77192982,10.2857143 C7.07534983,10.2857143 5.7,11.6726217 5.7,13.3834586 L5.7,19.1879699 C5.7,20.8988069 7.07534983,22.2857143 8.77192982,22.2857143 L16.2280702,22.2857143 C17.9246502,22.2857143 19.3,20.8988069 19.3,19.1879699 L19.3,13.3834586 C19.3,11.6726217 17.9246502,10.2857143 16.2280702,10.2857143 L8.77192982,10.2857143 Z M12.4887218,15.0989011 L12.5112782,15.0989011 C13.1756809,15.0989011 13.7142857,15.6375059 13.7142857,16.3019086 L13.7142857,18.0497397 C13.7142857,18.7141424 13.1756809,19.2527473 12.5112782,19.2527473 L12.4887218,19.2527473 C11.8243191,19.2527473 11.2857143,18.7141424 11.2857143,18.0497397 L11.2857143,16.3019086 C11.2857143,15.6375059 11.8243191,15.0989011 12.4887218,15.0989011 Z" id="Combined-Shape" fill="#4C5B6C" fill-rule="nonzero" opacity="0.2"></path>
                        </g>
                    </g>
                </g>
            </g>
        </g>
    </g>
</svg>