<?xml version="1.0" encoding="UTF-8"?>
<svg width="223px" height="40px" viewBox="0 0 240 40" version="1.1" xmlns="http://www.w3.org/2000/svg" xmlns:xlink="http://www.w3.org/1999/xlink">
    <!-- Generator: Sketch 52.2 (67145) - http://www.bohemiancoding.com/sketch -->
    <title>bc-logo</title>
    <desc>Created with Sketch.</desc>
    <g id="Symbols" stroke="none" stroke-width="1" fill="none" fill-rule="evenodd">
        <g id="TOP" transform="translate(-38.000000, -16.000000)">
            <g id="bc-logo">
                <g transform="translate(38.000000, 16.000000)">
                    <g id="Group" opacity="0.699999988" transform="translate(60.000000, 9.333333)" fill="#60747A">
                        <path d="M12.4857311,3.34089098 L3.77370597,3.34089098 L3.77370597,8.8114198 L8.07167543,8.8114198 C11.6254531,8.8114198 13.9463224,11.4751084 13.9463224,14.6250852 C13.9463224,17.7759167 11.6256669,20.4396053 8.07167543,20.4396053 L0.477755152,20.4396053 L0.477755152,0.390258145 L12.4857311,0.390258145 L12.4857311,3.34089098 Z M3.77370597,11.732354 L3.77370597,17.5180301 L8.07167543,17.5180301 C9.61927794,17.5180301 10.6516543,16.2008214 10.6516543,14.6248716 C10.6516543,13.0497763 9.61927794,11.732354 8.07167543,11.732354 L3.77370597,11.732354 Z" id="Shape" fill-rule="nonzero"></path>
                        <polygon id="Path" points="25.5115459 11.7635482 19.5796041 20.438537 16.4559654 20.438537 16.4559654 7.09210464 19.5796041 7.09210464 19.5796041 15.8273452 25.5115459 7.09210464 28.6353984 7.09210464 28.6353984 20.438537 25.5115459 20.438537"></polygon>
                        <path d="M34.2889898,16.3142744 C34.2889898,17.4597011 35.1484127,18.2337882 36.8392524,18.2337882 C38.0150797,18.2337882 38.9320112,17.7464317 38.9320112,16.6873233 C38.9320112,15.626933 38.2147565,14.8541278 36.5814255,14.8541278 L35.0620428,14.8541278 L35.0620428,12.6771548 L36.4093271,12.6771548 C38.0717332,12.6771548 38.6442542,11.9902406 38.6442542,10.8728033 C38.6442542,9.92714787 37.8419124,9.2120307 36.5816393,9.2120307 C35.0056031,9.2120307 34.4606606,10.0711541 34.4606606,11.1304762 L31.4223229,11.1304762 C31.4223229,8.52468922 33.4580006,6.74832707 36.6109281,6.74832707 C39.6762029,6.74832707 41.6248695,8.29564662 41.6248695,10.4437757 C41.6248695,12.3331635 40.5071922,13.3369342 38.9031499,13.5653358 C40.5649146,13.7653208 41.9119851,14.8543415 41.9119851,16.8012036 C41.9119851,19.3221679 39.4190175,20.7831692 36.6109281,20.7831692 C33.1991048,20.7831692 31.2521486,19.0076617 31.2521486,16.3147018 L34.2889898,16.3147018 L34.2889898,16.3142744 Z" id="Path"></path>
                        <polygon id="Path" points="53.7051054 14.9680081 47.6012789 14.9680081 47.6012789 20.4393916 44.4765713 20.4393916 44.4765713 7.09146366 47.6012789 7.09146366 47.6012789 12.3620075 53.7051054 12.3620075 53.7051054 7.09146366 56.8291716 7.09146366 56.8291716 20.4393916 53.7051054 20.4393916"></polygon>
                        <path d="M62.4654463,14.7105489 C62.6095386,16.6296353 63.4407416,18.1763139 66.0485128,18.1763139 C67.8242258,18.1763139 68.5121916,17.3740238 68.8852496,16.4292231 L71.9120428,16.4292231 C71.5402676,18.7202901 69.4584119,20.7827419 66.0485128,20.7827419 C61.5485148,20.7827419 59.3700275,17.6891711 59.3700275,13.7657481 C59.3700275,9.75664787 61.7501157,6.74875439 65.9629981,6.74875439 C69.4295507,6.74875439 72.1519116,9.35560965 72.1519116,12.7634731 C72.1519116,13.2209173 72.1519116,13.8512118 72.0088883,14.7103352 L62.4654463,14.7103352 L62.4654463,14.7105489 Z M62.5766154,12.3904242 L69.2262395,12.3904242 C69.2262395,10.3576711 67.8787414,9.09708208 65.9867284,9.09708208 C64.0671369,9.09708208 62.5766154,10.2138784 62.5766154,12.3904242 Z" id="Shape" fill-rule="nonzero"></path>
                        <path d="M83.9482387,11.9609693 C83.7765679,10.5008227 82.9162899,9.52632331 80.7961663,9.52632331 C78.3889272,9.52632331 77.2130999,11.5037387 77.2130999,13.7648935 C77.2130999,16.0566015 78.3034125,18.0043183 80.9973397,18.0043183 C82.8314165,18.0043183 83.5751807,17.2026692 83.9770999,15.8559756 L87.1009523,15.8559756 C86.6705995,18.6337581 84.6362045,20.7827419 80.7670913,20.7827419 C76.4109719,20.7827419 74.0903164,17.4030815 74.0903164,13.7648935 C74.0903164,10.1572588 76.4109719,6.74875439 80.7388715,6.74875439 C85.0958461,6.74875439 86.8715591,9.38295802 87.0727325,11.9609693 L83.9482387,11.9609693 Z" id="Path"></path>
                        <polygon id="Path" points="105.769455 7.09210464 109.389935 7.09210464 103.671566 13.5773008 109.423499 20.438537 105.726698 20.438537 100.625745 14.3667713 100.625745 20.438537 97.5021068 20.438537 97.5021068 7.09210464 100.625745 7.09210464 100.625745 12.992302"></polygon>
                        <path d="M111.21546,17.8895833 L111.960934,17.8895833 C112.763062,17.8895833 113.250283,17.6037074 113.250283,16.8007763 L113.250283,7.09295927 L124.440952,7.09295927 L124.440952,20.4393916 L121.317527,20.4393916 L121.317527,9.69853258 L116.373494,9.69853258 L116.373494,17.1174192 C116.373494,19.2928966 114.940908,20.6682206 112.676265,20.6682206 L111.21546,20.6682206 L111.21546,17.8895833 Z" id="Path"></path>
                        <path d="M140.663734,7.09210464 L140.663734,20.438537 L137.539882,20.438537 L137.539882,18.6346128 C136.708679,19.9813064 134.960544,20.7829555 133.412941,20.7829555 C129.343938,20.7829555 126.563854,17.5464467 126.563854,13.7659618 C126.563854,9.98483584 129.343938,6.74896805 133.412941,6.74896805 C134.96033,6.74896805 136.708679,7.55040351 137.539882,8.8966698 L137.539882,7.09210464 L140.663734,7.09210464 Z M137.539882,13.7659618 C137.539882,11.4740401 135.993562,9.52717794 133.586109,9.52717794 C131.235523,9.52717794 129.687493,11.4740401 129.687493,13.7659618 C129.687493,16.0568152 131.235523,18.0053866 133.586109,18.0053866 C135.993562,18.0051729 137.539882,16.0568152 137.539882,13.7659618 Z" id="Shape" fill-rule="nonzero"></path>
                        <path d="M152.617408,11.9609693 C152.446165,10.5008227 151.585459,9.52632331 149.46555,9.52632331 C147.05831,9.52632331 145.882483,11.5037387 145.882483,13.7648935 C145.882483,16.0566015 146.972796,18.0043183 149.667151,18.0043183 C151.501014,18.0043183 152.244778,17.2026692 152.646697,15.8559756 L155.770122,15.8559756 C155.340197,18.6337581 153.306015,20.7827419 149.436475,20.7827419 C145.080355,20.7827419 142.7597,17.4030815 142.7597,13.7648935 C142.7597,10.1572588 145.080355,6.74875439 149.408255,6.74875439 C153.764588,6.74875439 155.541156,9.38295802 155.742543,11.9609693 L152.617408,11.9609693 Z" id="Path"></path>
                        <path d="M167.493548,11.9609693 C167.321663,10.5008227 166.461171,9.52632331 164.341048,9.52632331 C161.934236,9.52632331 160.757767,11.5037387 160.757767,13.7648935 C160.757767,16.0566015 161.84808,18.0043183 164.542435,18.0043183 C166.376298,18.0043183 167.120062,17.2026692 167.521981,15.8559756 L170.645834,15.8559756 C170.215267,18.6337581 168.181086,20.7827419 164.312614,20.7827419 C159.955853,20.7827419 157.635198,17.4030815 157.635198,13.7648935 C157.635198,10.1572588 159.955853,6.74875439 164.283539,6.74875439 C168.6403,6.74875439 170.417082,9.38295802 170.617614,11.9609693 L167.493548,11.9609693 Z" id="Path"></path>
                    </g>
                    <g id="Group-13">
                        <rect id="Rectangle" fill="#D63A27" x="26.6666667" y="0" width="6.66666667" height="16"></rect>
                        <rect id="Rectangle" fill="#F37B47" x="13.3333333" y="0" width="6.66666667" height="16"></rect>
                        <rect id="Rectangle" fill="#7AAD42" x="0" y="0" width="6.66666667" height="16"></rect>
                        <rect id="Rectangle" fill="#B5DAEF" x="13.3333333" y="24" width="6.66666667" height="16"></rect>
                        <rect id="Rectangle" fill="#60747A" x="0" y="24" width="6.66666667" height="16"></rect>
                        <rect id="Rectangle" fill="#FFD144" x="26.6666667" y="24" width="6.66666667" height="16"></rect>
                    </g>
                </g>
            </g>
        </g>
    </g>
</svg>
