<?xml version="1.0" encoding="UTF-8"?>
<svg width="90px" height="30px" viewBox="0 0 90 30" version="1.1" xmlns="http://www.w3.org/2000/svg" xmlns:xlink="http://www.w3.org/1999/xlink">
    <!-- Generator: Sketch 55.2 (78181) - https://sketchapp.com -->
    <title>google</title>
    <desc>Created with Sketch.</desc>
    <g id="Desktop" stroke="none" stroke-width="1" fill="none" fill-rule="evenodd">
        <g id="16_about_page_all" transform="translate(-1518.000000, -2987.000000)">
            <g id="BODY">
                <g id="footer" transform="translate(0.000000, 2958.000000)">
                    <g id="Group-7" transform="translate(1518.000000, 22.000000)">
                        <g id="google" transform="translate(0.000000, 7.000000)">
                            <path d="M38.5833333,15.7266667 C38.5833333,19.9833333 35.2533333,23.12 31.1666667,23.12 C27.08,23.12 23.75,19.9833333 23.75,15.7266667 C23.75,11.44 27.08,8.33333333 31.1666667,8.33333333 C35.2533333,8.33333333 38.5833333,11.44 38.5833333,15.7266667 Z M35.3366667,15.7266667 C35.3366667,13.0666667 33.4066667,11.2466667 31.1666667,11.2466667 C28.9266667,11.2466667 26.9966667,13.0666667 26.9966667,15.7266667 C26.9966667,18.36 28.9266667,20.2066667 31.1666667,20.2066667 C33.4066667,20.2066667 35.3366667,18.3566667 35.3366667,15.7266667 Z" id="Shape" fill="#EA4335" fill-rule="nonzero"></path>
                            <path d="M54.5833333,15.7266667 C54.5833333,19.9833333 51.2533333,23.12 47.1666667,23.12 C43.08,23.12 39.75,19.9833333 39.75,15.7266667 C39.75,11.4433333 43.08,8.33333333 47.1666667,8.33333333 C51.2533333,8.33333333 54.5833333,11.44 54.5833333,15.7266667 Z M51.3366667,15.7266667 C51.3366667,13.0666667 49.4066667,11.2466667 47.1666667,11.2466667 C44.9266667,11.2466667 42.9966667,13.0666667 42.9966667,15.7266667 C42.9966667,18.36 44.9266667,20.2066667 47.1666667,20.2066667 C49.4066667,20.2066667 51.3366667,18.3566667 51.3366667,15.7266667 Z" id="Shape" fill="#FBBC05" fill-rule="nonzero"></path>
                            <path d="M69.9166667,8.78 L69.9166667,22.0533333 C69.9166667,27.5133333 66.6966667,29.7433333 62.89,29.7433333 C59.3066667,29.7433333 57.15,27.3466667 56.3366667,25.3866667 L59.1633333,24.21 C59.6666667,25.4133333 60.9,26.8333333 62.8866667,26.8333333 C65.3233333,26.8333333 66.8333333,25.33 66.8333333,22.5 L66.8333333,21.4366667 L66.72,21.4366667 C65.9933333,22.3333333 64.5933333,23.1166667 62.8266667,23.1166667 C59.13,23.1166667 55.7433333,19.8966667 55.7433333,15.7533333 C55.7433333,11.58 59.13,8.33333333 62.8266667,8.33333333 C64.59,8.33333333 65.99,9.11666667 66.72,9.98666667 L66.8333333,9.98666667 L66.8333333,8.78333333 L69.9166667,8.78333333 L69.9166667,8.78 Z M67.0633333,15.7533333 C67.0633333,13.15 65.3266667,11.2466667 63.1166667,11.2466667 C60.8766667,11.2466667 59,13.15 59,15.7533333 C59,18.33 60.8766667,20.2066667 63.1166667,20.2066667 C65.3266667,20.2066667 67.0633333,18.33 67.0633333,15.7533333 Z" id="Shape" fill="#4285F4" fill-rule="nonzero"></path>
                            <polygon id="Path" fill="#34A853" points="75 1 75 22.6666667 71.8333333 22.6666667 71.8333333 1"></polygon>
                            <path d="M87.34,18.16 L89.86,19.84 C89.0466667,21.0433333 87.0866667,23.1166667 83.7,23.1166667 C79.5,23.1166667 76.3633333,19.87 76.3633333,15.7233333 C76.3633333,11.3266667 79.5266667,8.33 83.3366667,8.33 C87.1733333,8.33 89.05,11.3833333 89.6633333,13.0333333 L90,13.8733333 L80.1166667,17.9666667 C80.8733333,19.45 82.05,20.2066667 83.7,20.2066667 C85.3533333,20.2066667 86.5,19.3933333 87.34,18.16 Z M79.5833333,15.5 L86.19,12.7566667 C85.8266667,11.8333333 84.7333333,11.19 83.4466667,11.19 C81.7966667,11.19 79.5,12.6466667 79.5833333,15.5 L79.5833333,15.5 Z" id="Shape" fill="#EA4335" fill-rule="nonzero"></path>
                            <path d="M11.7633333,13.8033333 L11.7633333,10.6666667 L22.3333333,10.6666667 C22.4366667,11.2133333 22.49,11.86 22.49,12.56 C22.49,14.9133333 21.8466667,17.8233333 19.7733333,19.8966667 C17.7566667,21.9966667 15.18,23.1166667 11.7666667,23.1166667 C5.44,23.1166667 0.12,17.9633333 0.12,11.6366667 C0.12,5.31 5.44,0.156666667 11.7666667,0.156666667 C15.2666667,0.156666667 17.76,1.53 19.6333333,3.32 L17.42,5.53333333 C16.0766667,4.27333333 14.2566667,3.29333333 11.7633333,3.29333333 C7.14333333,3.29333333 3.53,7.01666667 3.53,11.6366667 C3.53,16.2566667 7.14333333,19.98 11.7633333,19.98 C14.76,19.98 16.4666667,18.7766667 17.56,17.6833333 C18.4466667,16.7966667 19.03,15.53 19.26,13.8 L11.7633333,13.8033333 Z" id="Path" fill="#4285F4"></path>
                        </g>
                    </g>
                </g>
            </g>
        </g>
    </g>
</svg>