<?xml version="1.0" encoding="UTF-8"?>
<svg width="78px" height="26px" viewBox="0 0 78 26" version="1.1" xmlns="http://www.w3.org/2000/svg" xmlns:xlink="http://www.w3.org/1999/xlink">
    <!-- Generator: Sketch 52.6 (67491) - http://www.bohemiancoding.com/sketch -->
    <title>google</title>
    <desc>Created with Sketch.</desc>
    <g id="Desktop" stroke="none" stroke-width="1" fill="none" fill-rule="evenodd">
        <g id="1_main" transform="translate(-215.000000, -1009.000000)" fill="#FFFFFF">
            <g id="Left-Side">
                <g id="co-logo" transform="translate(215.000000, 1000.000000)">
                    <g id="google" transform="translate(0.000000, 9.000000)">
                        <path d="M33.4388889,13.6297778 C33.4388889,17.3188889 30.5528889,20.0373333 27.0111111,20.0373333 C23.4693333,20.0373333 20.5833333,17.3188889 20.5833333,13.6297778 C20.5833333,9.91466667 23.4693333,7.22222222 27.0111111,7.22222222 C30.5528889,7.22222222 33.4388889,9.91466667 33.4388889,13.6297778 Z M30.6251111,13.6297778 C30.6251111,11.3244444 28.9524444,9.74711111 27.0111111,9.74711111 C25.0697778,9.74711111 23.3971111,11.3244444 23.3971111,13.6297778 C23.3971111,15.912 25.0697778,17.5124444 27.0111111,17.5124444 C28.9524444,17.5124444 30.6251111,15.9091111 30.6251111,13.6297778 Z" id="Shape" fill-rule="nonzero"></path>
                        <path d="M47.3055556,13.6297778 C47.3055556,17.3188889 44.4195556,20.0373333 40.8777778,20.0373333 C37.336,20.0373333 34.45,17.3188889 34.45,13.6297778 C34.45,9.91755556 37.336,7.22222222 40.8777778,7.22222222 C44.4195556,7.22222222 47.3055556,9.91466667 47.3055556,13.6297778 Z M44.4917778,13.6297778 C44.4917778,11.3244444 42.8191111,9.74711111 40.8777778,9.74711111 C38.9364444,9.74711111 37.2637778,11.3244444 37.2637778,13.6297778 C37.2637778,15.912 38.9364444,17.5124444 40.8777778,17.5124444 C42.8191111,17.5124444 44.4917778,15.9091111 44.4917778,13.6297778 Z" id="Shape" fill-rule="nonzero"></path>
                        <path d="M60.5944444,7.60933333 L60.5944444,19.1128889 C60.5944444,23.8448889 57.8037778,25.7775556 54.5046667,25.7775556 C51.3991111,25.7775556 49.53,23.7004444 48.8251111,22.0017778 L51.2748889,20.982 C51.7111111,22.0248889 52.78,23.2555556 54.5017778,23.2555556 C56.6135556,23.2555556 57.9222222,21.9526667 57.9222222,19.5 L57.9222222,18.5784444 L57.824,18.5784444 C57.1942222,19.3555556 55.9808889,20.0344444 54.4497778,20.0344444 C51.246,20.0344444 48.3108889,17.2437778 48.3108889,13.6528889 C48.3108889,10.036 51.246,7.22222222 54.4497778,7.22222222 C55.978,7.22222222 57.1913333,7.90111111 57.824,8.65511111 L57.9222222,8.65511111 L57.9222222,7.61222222 L60.5944444,7.61222222 L60.5944444,7.60933333 Z M58.1215556,13.6528889 C58.1215556,11.3966667 56.6164444,9.74711111 54.7011111,9.74711111 C52.7597778,9.74711111 51.1333333,11.3966667 51.1333333,13.6528889 C51.1333333,15.886 52.7597778,17.5124444 54.7011111,17.5124444 C56.6164444,17.5124444 58.1215556,15.886 58.1215556,13.6528889 Z" id="Shape" fill-rule="nonzero"></path>
                        <polygon id="Path" points="65 0.866666667 65 19.6444444 62.2555556 19.6444444 62.2555556 0.866666667"></polygon>
                        <path d="M75.6946667,15.7386667 L77.8786667,17.1946667 C77.1737778,18.2375556 75.4751111,20.0344444 72.54,20.0344444 C68.9,20.0344444 66.1815556,17.2206667 66.1815556,13.6268889 C66.1815556,9.81644444 68.9231111,7.21933333 72.2251111,7.21933333 C75.5502222,7.21933333 77.1766667,9.86555556 77.7082222,11.2955556 L78,12.0235556 L69.4344444,15.5711111 C70.0902222,16.8566667 71.11,17.5124444 72.54,17.5124444 C73.9728889,17.5124444 74.9666667,16.8075556 75.6946667,15.7386667 Z M68.9722222,13.4333333 L74.698,11.0557778 C74.3831111,10.2555556 73.4355556,9.698 72.3204444,9.698 C70.8904444,9.698 68.9,10.9604444 68.9722222,13.4333333 Z" id="Shape" fill-rule="nonzero"></path>
                        <path d="M10.1948889,11.9628889 L10.1948889,9.24444444 L19.3555556,9.24444444 C19.4451111,9.71822222 19.4913333,10.2786667 19.4913333,10.8853333 C19.4913333,12.9248889 18.9337778,15.4468889 17.1368889,17.2437778 C15.3891111,19.0637778 13.156,20.0344444 10.1977778,20.0344444 C4.71466667,20.0344444 0.104,15.5682222 0.104,10.0851111 C0.104,4.602 4.71466667,0.135777778 10.1977778,0.135777778 C13.2311111,0.135777778 15.392,1.326 17.0155556,2.87733333 L15.0973333,4.79555556 C13.9331111,3.70355556 12.3557778,2.85422222 10.1948889,2.85422222 C6.19088889,2.85422222 3.05933333,6.08111111 3.05933333,10.0851111 C3.05933333,14.0891111 6.19088889,17.316 10.1948889,17.316 C12.792,17.316 14.2711111,16.2731111 15.2186667,15.3255556 C15.9871111,14.5571111 16.4926667,13.4593333 16.692,11.96 L10.1948889,11.9628889 Z" id="Path"></path>
                    </g>
                </g>
            </g>
        </g>
    </g>
</svg>
