<?xml version="1.0" encoding="utf-8"?>
<!-- Generator: Adobe Illustrator 23.0.4, SVG Export Plug-In . SVG Version: 6.00 Build 0)  -->
<svg version="1.1" id="Layer_1" xmlns="http://www.w3.org/2000/svg" xmlns:xlink="http://www.w3.org/1999/xlink" x="0px" y="0px"
	 viewBox="0 0 78 26" style="enable-background:new 0 0 78 26;" xml:space="preserve">
<style type="text/css">
	.st0{fill:#202020;}
	.st1{fill-rule:evenodd;clip-rule:evenodd;fill:#202020;}
</style>
<title>google</title>
<desc>Created with Sketch.</desc>
<g id="Desktop">
	<g transform="translate(-215.000000, -1009.000000)">
		<g id="Left-Side">
			<g id="co-logo" transform="translate(215.000000, 1000.000000)">
				<g id="google" transform="translate(0.000000, 9.000000)">
					<path id="Shape" class="st0" d="M33.4,13.6c0,3.7-2.9,6.4-6.4,6.4s-6.4-2.7-6.4-6.4c0-3.7,2.9-6.4,6.4-6.4S33.4,9.9,33.4,13.6z
						 M30.6,13.6c0-2.3-1.7-3.9-3.6-3.9s-3.6,1.6-3.6,3.9c0,2.3,1.7,3.9,3.6,3.9S30.6,15.9,30.6,13.6z"/>
					<path class="st0" d="M47.3,13.6c0,3.7-2.9,6.4-6.4,6.4s-6.4-2.7-6.4-6.4c0-3.7,2.9-6.4,6.4-6.4S47.3,9.9,47.3,13.6z M44.5,13.6
						c0-2.3-1.7-3.9-3.6-3.9s-3.6,1.6-3.6,3.9c0,2.3,1.7,3.9,3.6,3.9S44.5,15.9,44.5,13.6z"/>
					<path class="st0" d="M60.6,7.6v11.5c0,4.7-2.8,6.7-6.1,6.7c-3.1,0-5-2.1-5.7-3.8l2.4-1c0.4,1,1.5,2.3,3.2,2.3
						c2.1,0,3.4-1.3,3.4-3.8v-0.9h-0.1C57.2,19.4,56,20,54.4,20c-3.2,0-6.1-2.8-6.1-6.4c0-3.6,2.9-6.4,6.1-6.4
						c1.5,0,2.7,0.7,3.4,1.4h0.1v-1L60.6,7.6L60.6,7.6z M58.1,13.7c0-2.3-1.5-3.9-3.4-3.9c-1.9,0-3.6,1.6-3.6,3.9
						c0,2.2,1.6,3.9,3.6,3.9C56.6,17.5,58.1,15.9,58.1,13.7z"/>
					<polygon id="Path" class="st1" points="65,0.9 65,19.6 62.3,19.6 62.3,0.9 					"/>
					<path class="st0" d="M75.7,15.7l2.2,1.5c-0.7,1-2.4,2.8-5.3,2.8c-3.6,0-6.4-2.8-6.4-6.4c0-3.8,2.7-6.4,6-6.4
						c3.3,0,5,2.6,5.5,4.1L78,12l-8.6,3.5c0.7,1.3,1.7,1.9,3.1,1.9C74,17.5,75,16.8,75.7,15.7z M69,13.4l5.7-2.4
						c-0.3-0.8-1.3-1.4-2.4-1.4C70.9,9.7,68.9,11,69,13.4z"/>
					<path class="st1" d="M10.2,12V9.2h9.2c0.1,0.5,0.1,1,0.1,1.6c0,2-0.6,4.6-2.4,6.4c-1.7,1.8-4,2.8-6.9,2.8
						c-5.5,0-10.1-4.5-10.1-9.9s4.6-9.9,10.1-9.9c3,0,5.2,1.2,6.8,2.7l-1.9,1.9c-1.2-1.1-2.7-1.9-4.9-1.9c-4,0-7.1,3.2-7.1,7.2
						s3.1,7.2,7.1,7.2c2.6,0,4.1-1,5-2c0.8-0.8,1.3-1.9,1.5-3.4L10.2,12z"/>
				</g>
			</g>
		</g>
	</g>
</g>
</svg>
