<?xml version="1.0" encoding="UTF-8"?>
<svg width="117px" height="22px" viewBox="0 0 117 22" version="1.1" xmlns="http://www.w3.org/2000/svg" xmlns:xlink="http://www.w3.org/1999/xlink">
    <!-- Generator: Sketch 55.2 (78181) - https://sketchapp.com -->
    <title>sberbank</title>
    <desc>Created with Sketch.</desc>
    <defs>
        <rect id="path-1" x="0" y="0.285" width="138.553868" height="39.715"></rect>
        <rect id="path-3" x="0" y="0.285" width="138.553868" height="39.715"></rect>
        <rect id="path-5" x="0" y="0.285" width="138.553868" height="39.715"></rect>
    </defs>
    <g id="Desktop" stroke="none" stroke-width="1" fill="none" fill-rule="evenodd">
        <g id="16_about_page_all" transform="translate(-1633.000000, -2989.000000)">
            <g id="BODY">
                <g id="footer" transform="translate(0.000000, 2958.000000)">
                    <g id="Group-7" transform="translate(1518.000000, 22.000000)">
                        <g id="sberbank" transform="translate(106.000000, 0.000000)">
                            <g id="Clipped">
                                <mask id="mask-2" fill="white">
                                    <use xlink:href="#path-1"></use>
                                </mask>
                                <g id="SVGID_1_"></g>
                                <path d="M47.7560719,22.2616667 L48.1281257,22.9716667 C47.0477545,23.6641667 45.596994,24.0525 44.0954611,24.0525 C40.5522096,24.0525 38.510491,22.16 38.510491,18.09 C38.510491,14.1883333 40.1476946,11.8233333 44.3318443,11.8233333 C46.1879521,11.8233333 47.4364551,12.2283333 47.7735509,12.3633333 C47.7394251,13.1575 47.7394251,14.0358333 47.7735509,14.83 L47.0144611,14.83 L46.8122036,14.0866667 C46.5416946,13.2083333 46.018988,12.6 44.4159102,12.6 C41.9022575,12.6 41.2613593,14.4583333 41.2613593,17.6508333 C41.2613593,20.6916667 41.8856108,22.955 44.8037784,22.955 C46.1879521,22.9541667 47.0477545,22.6158333 47.7560719,22.2616667 L47.7560719,22.2616667 Z M53.2403293,12.7683333 C52.4978862,12.7683333 52.3963413,12.9541667 52.3963413,13.4608333 L52.3963413,16.265 L53.0547186,16.265 C56.2941677,16.265 58.5880838,16.6366667 58.5880838,19.8966667 C58.5880838,23.0725 56.8002275,23.8491667 53.914521,23.8491667 L49.1901856,23.8491667 L49.1901856,23.4775 C49.7811437,23.3425 49.8652096,23.1741667 49.8652096,22.5316667 L49.8652096,13.3425 C49.8652096,12.7008333 49.7811437,12.5316667 49.1901856,12.3966667 L49.1901856,12.025 L57.980479,12.025 C57.9471856,12.8866667 57.9471856,13.7316667 57.980479,14.5925 L57.3395808,14.5925 L57.1880958,14.1025 C56.8168743,12.8866667 56.3948802,12.7683333 54.8592216,12.7683333 L53.2403293,12.7683333 Z M53.7963293,23.1058333 C55.331988,23.1058333 55.9395928,22.0766667 55.9395928,20.0158333 C55.9395928,18.09 55.4160539,17.0091667 53.4251078,17.0091667 L52.3963413,17.0091667 L52.3963413,22.0766667 C52.3963413,22.8366667 52.5985988,23.1058333 53.4425868,23.1058333 L53.7963293,23.1058333 Z M63.7169341,12.7683333 C63.2108743,12.7683333 63.1268084,12.9033333 63.1268084,13.3091667 L63.1268084,16.9741667 L64.6957605,16.9741667 C65.3533054,16.9741667 66.3829042,16.9066667 66.7882515,16.6191667 L66.7882515,18.1066667 C66.3829042,17.8191667 65.3533054,17.7516667 64.6957605,17.7516667 L63.1268084,17.7516667 L63.1268084,22.16 C63.1268084,22.87 63.4131317,23.1058333 64.9654371,23.1058333 L65.3033653,23.1058333 C66.8381916,23.1058333 67.2435389,23.005 67.5806347,21.535 L67.6821796,21.0966667 L68.4246228,21.0966667 C68.390497,22.0091667 68.390497,22.9383333 68.4246228,23.85 L59.921485,23.85 L59.921485,23.4783333 C60.5116108,23.3433333 60.5956766,23.175 60.5956766,22.5325 L60.5956766,13.3425 C60.5956766,12.7008333 60.5116108,12.5316667 59.921485,12.3966667 L59.921485,12.025 L68.1549461,12.025 C68.1208204,12.8866667 68.1208204,13.7316667 68.1549461,14.5925 L67.5132156,14.5925 L67.3608982,14.1025 C66.990509,12.8866667 66.568515,12.7683333 65.0328563,12.7683333 L63.7169341,12.7683333 Z M69.9428024,23.8491667 L69.9428024,23.4775 C70.5337605,23.3425 70.6178263,23.1741667 70.6178263,22.5316667 L70.6178263,13.3425 C70.6178263,12.7008333 70.5337605,12.5316667 69.9428024,12.3966667 L69.9428024,12.025 L74.8352695,12.025 C77.1807904,12.025 78.9353533,12.5825 78.9353533,15.42 C78.9353533,18.3091667 77.1816228,19.17 74.3292096,19.17 L73.1489581,19.17 L73.1489581,22.5316667 C73.1489581,23.1741667 73.2338563,23.3425 73.823982,23.4775 L73.823982,23.8491667 L69.9428024,23.8491667 L69.9428024,23.8491667 Z M74.3466886,18.4266667 C75.9156407,18.4266667 76.2868623,17.16 76.2868623,15.3191667 C76.2868623,13.765 75.7466766,12.7683333 74.1602455,12.7683333 L73.8905689,12.7683333 C73.384509,12.7683333 73.1472934,12.8525 73.1472934,13.41 L73.1481257,18.4266667 L74.3466886,18.4266667 L74.3466886,18.4266667 Z M84.0483892,12.7683333 C83.3051138,12.7683333 83.2035689,12.9541667 83.2035689,13.4608333 L83.2035689,16.265 L83.8619461,16.265 C87.1022275,16.265 89.3961437,16.6366667 89.3961437,19.8966667 C89.3961437,23.0725 87.6074551,23.8491667 84.7225808,23.8491667 L79.9982455,23.8491667 L79.9982455,23.4775 C80.5892036,23.3425 80.6732695,23.1741667 80.6732695,22.5316667 L80.6732695,13.3425 C80.6732695,12.7008333 80.5892036,12.5316667 79.9982455,12.3966667 L79.9982455,12.025 L88.7885389,12.025 C88.7544132,12.8866667 88.7544132,13.7316667 88.7885389,14.5925 L88.1476407,14.5925 L87.9953234,14.1025 C87.6241018,12.8866667 87.2021078,12.7683333 85.6664491,12.7683333 L84.0483892,12.7683333 Z M84.6043892,23.1058333 C86.1400479,23.1058333 86.7468204,22.0766667 86.7468204,20.0158333 C86.7468204,18.09 86.2232814,17.0091667 84.2323353,17.0091667 L83.2027365,17.0091667 L83.2027365,22.0766667 C83.2027365,22.8366667 83.404994,23.1058333 84.2498144,23.1058333 L84.6043892,23.1058333 Z M98.0008263,23.8491667 C97.8992814,23.2066667 97.5280599,22.025 97.2076108,21.0791667 L96.7015509,19.5758333 L92.9560419,19.5758333 C92.5673413,20.7583333 92.281018,21.7208333 92.1295329,22.3966667 C91.9946946,23.0725 91.893982,23.5791667 91.876503,23.8491667 L89.7340719,23.8491667 C90.0212275,23.3933333 90.5597485,22.3458333 91.3704431,20.3691667 L93.547,14.9983333 C94.0364132,13.7991667 94.1196467,13.4266667 94.1196467,13.0891667 C94.1196467,12.8525 94.0522275,12.5316667 93.4446228,12.3966667 L93.4446228,12.025 L96.8197425,12.025 C96.870515,12.3791667 96.9038084,12.785 97.2575509,13.7816667 L99.7370778,20.8591667 C100.226491,22.2441667 100.75003,23.4266667 101.00306,23.8491667 L98.0008263,23.8491667 Z M96.448521,18.7816667 L94.8629222,14.0183333 L93.2257186,18.7816667 L96.448521,18.7816667 Z M109.675994,17.7516667 L105.120623,17.7516667 L105.120623,22.5316667 C105.120623,23.1741667 105.205521,23.3425 105.795647,23.4775 L105.795647,23.8491667 L101.915299,23.8491667 L101.915299,23.4775 C102.506257,23.3425 102.590323,23.1741667 102.590323,22.5316667 L102.590323,13.3425 C102.590323,12.7008333 102.506257,12.5316667 101.915299,12.3966667 L101.915299,12.025 L105.795647,12.025 L105.795647,12.3966667 C105.205521,12.5316667 105.120623,12.7008333 105.120623,13.3425 L105.120623,16.9741667 L109.675994,16.9741667 L109.675994,13.3425 C109.675994,12.7008333 109.591096,12.5316667 109.00097,12.3966667 L109.00097,12.025 L112.881317,12.025 L112.881317,12.3966667 C112.290359,12.5316667 112.206293,12.7008333 112.206293,13.3425 L112.206293,22.5316667 C112.206293,23.1741667 112.290359,23.3425 112.881317,23.4775 L112.881317,23.8491667 L109.00097,23.8491667 L109.00097,23.4775 C109.591096,23.3425 109.675994,23.1741667 109.675994,22.5316667 L109.675994,17.7516667 Z M115.429096,13.3425 C115.429096,12.7008333 115.344198,12.5316667 114.754072,12.3966667 L114.754072,12.025 L118.634419,12.025 L118.634419,12.3966667 C118.044293,12.5316667 117.959395,12.7008333 117.959395,13.3425 L117.959395,22.5316667 C117.959395,23.1741667 118.044293,23.3425 118.634419,23.4775 L118.634419,23.8491667 L114.754072,23.8491667 L114.754072,23.4775 C115.344198,23.3425 115.429096,23.1741667 115.429096,22.5316667 L115.429096,13.3425 L115.429096,13.3425 Z M121.705737,18.6633333 C122.532246,19.8291667 124.455772,22.4308333 125.854928,23.8491667 L121.890515,23.8491667 C121.603359,23.2241667 121.181365,22.1941667 119.950341,20.3358333 L118.161653,17.65 L119.713958,15.64 C120.642012,14.4408333 121.839743,12.8358333 122.160192,12.025 L124.926874,12.025 L124.926874,12.0416667 C123.81321,12.6841667 121.940455,14.5758333 121.401102,15.1666667 L120.170078,16.4841667 L121.705737,18.6633333 Z" id="Shape" fill="#2B9938" fill-rule="nonzero" mask="url(#mask-2)"></path>
                            </g>
                            <g id="Clipped">
                                <mask id="mask-4" fill="white">
                                    <use xlink:href="#path-3"></use>
                                </mask>
                                <g id="SVGID_1_"></g>
                                <rect id="Rectangle" fill="#2B9938" mask="url(#mask-4)" x="39.4227305" y="26.805" width="86.4330299" height="1.1825"></rect>
                            </g>
                            <g id="Clipped">
                                <mask id="mask-6" fill="white">
                                    <use xlink:href="#path-5"></use>
                                </mask>
                                <g id="SVGID_1_"></g>
                                <path d="M32.6059042,19.5616667 C32.6059042,25.8475 27.5153413,30.9441667 21.2353713,30.9441667 C14.9554012,30.9441667 9.86567066,25.8475 9.86567066,19.5616667 C9.86567066,19.305 9.87565868,19.0525 9.89230539,18.8016667 L16.7765509,22.7658333 L31.3574012,14.3691667 C32.1547784,15.925 32.6059042,17.6908333 32.6059042,19.5616667 L32.6059042,19.5616667 Z M16.7757186,19.9008333 L10.3667365,16.21 C10.2410539,16.6183333 10.1378443,17.0375 10.0587725,17.465 L16.7757186,21.3333333 L30.7306527,13.2966667 C30.5000958,12.9483333 30.2528922,12.6133333 29.9873772,12.2925 L16.7757186,19.9008333 Z M29.1209162,11.36 C28.8054611,11.0558333 28.4716946,10.77 28.1229461,10.5025 L16.7757186,17.0375 L11.3588802,13.9183333 C11.1541257,14.2766667 10.9676826,14.6491667 10.8028802,15.0308333 L16.7757186,18.47 L29.1209162,11.36 Z M16.7757186,15.6066667 L26.9751557,9.7325 C26.549,9.4825 26.1053653,9.25916667 25.6467485,9.06583333 L16.7757186,14.1741667 L12.8254551,11.8991667 C12.5441257,12.2083333 12.2802754,12.535 12.0339042,12.875 L16.7757186,15.6066667 Z" id="Shape" fill="#2B9938" fill-rule="nonzero" mask="url(#mask-6)"></path>
                            </g>
                        </g>
                    </g>
                </g>
            </g>
        </g>
    </g>
</svg>