<?xml version="1.0" encoding="UTF-8"?>
<svg width="106px" height="20px" viewBox="0 0 106 20" version="1.1" xmlns="http://www.w3.org/2000/svg" xmlns:xlink="http://www.w3.org/1999/xlink">
    <!-- Generator: Sketch 52.6 (67491) - http://www.bohemiancoding.com/sketch -->
    <title>sberbank</title>
    <desc>Created with Sketch.</desc>
    <g id="Desktop" stroke="none" stroke-width="1" fill="none" fill-rule="evenodd">
        <g id="1_main" transform="translate(-339.000000, -1011.000000)" fill="#FFFFFF">
            <g id="Left-Side">
                <g id="co-logo" transform="translate(215.000000, 1000.000000)">
                    <g id="sberbank" transform="translate(124.000000, 11.000000)">
                        <path d="M34.9461078,12.0355 L35.2806886,12.6745 C34.3091317,13.29775 33.004491,13.64725 31.6541916,13.64725 C28.4678144,13.64725 26.6317365,11.944 26.6317365,8.281 C26.6317365,4.7695 28.1040419,2.641 31.8667665,2.641 C33.5359281,2.641 34.6586826,3.0055 34.9618263,3.127 C34.9311377,3.84175 34.9311377,4.63225 34.9618263,5.347 L34.2791916,5.347 L34.0973054,4.678 C33.8540419,3.8875 33.383982,3.34 31.9423653,3.34 C29.6818862,3.34 29.1055389,5.0125 29.1055389,7.88575 C29.1055389,10.6225 29.6669162,12.6595 32.2911677,12.6595 C33.5359281,12.65875 34.3091317,12.35425 34.9461078,12.0355 Z M39.877994,3.4915 C39.2103293,3.4915 39.119012,3.65875 39.119012,4.11475 L39.119012,6.6385 L39.7110778,6.6385 C42.6242515,6.6385 44.6871257,6.973 44.6871257,9.907 C44.6871257,12.76525 43.0793413,13.46425 40.4842814,13.46425 L36.2357784,13.46425 L36.2357784,13.12975 C36.7672156,13.00825 36.8428144,12.85675 36.8428144,12.2785 L36.8428144,4.00825 C36.8428144,3.43075 36.7672156,3.2785 36.2357784,3.157 L36.2357784,2.8225 L44.1407186,2.8225 C44.1107784,3.598 44.1107784,4.3585 44.1407186,5.13325 L43.5643713,5.13325 L43.4281437,4.69225 C43.0943114,3.598 42.7148204,3.4915 41.3338323,3.4915 L39.877994,3.4915 Z M40.377994,12.79525 C41.758982,12.79525 42.3053892,11.869 42.3053892,10.01425 C42.3053892,8.281 41.8345808,7.30825 40.0441617,7.30825 L39.119012,7.30825 L39.119012,11.869 C39.119012,12.553 39.3008982,12.79525 40.0598802,12.79525 L40.377994,12.79525 Z M49.2994012,3.4915 C48.8443114,3.4915 48.7687126,3.613 48.7687126,3.97825 L48.7687126,7.27675 L50.1796407,7.27675 C50.7709581,7.27675 51.6968563,7.216 52.0613772,6.95725 L52.0613772,8.296 C51.6968563,8.03725 50.7709581,7.9765 50.1796407,7.9765 L48.7687126,7.9765 L48.7687126,11.944 C48.7687126,12.583 49.0261976,12.79525 50.4221557,12.79525 L50.7260479,12.79525 C52.1062874,12.79525 52.4708084,12.7045 52.7739521,11.3815 L52.8652695,10.987 L53.5329341,10.987 C53.5022455,11.80825 53.5022455,12.6445 53.5329341,13.465 L45.8862275,13.465 L45.8862275,13.1305 C46.4169162,13.009 46.492515,12.8575 46.492515,12.27925 L46.492515,4.00825 C46.492515,3.43075 46.4169162,3.2785 45.8862275,3.157 L45.8862275,2.8225 L53.2904192,2.8225 C53.2597305,3.598 53.2597305,4.3585 53.2904192,5.13325 L52.7133234,5.13325 L52.5763473,4.69225 C52.2432635,3.598 51.8637725,3.4915 50.4827844,3.4915 L49.2994012,3.4915 Z M54.8982036,13.46425 L54.8982036,13.12975 C55.4296407,13.00825 55.5052395,12.85675 55.5052395,12.2785 L55.5052395,4.00825 C55.5052395,3.43075 55.4296407,3.2785 54.8982036,3.157 L54.8982036,2.8225 L59.2979042,2.8225 C61.4071856,2.8225 62.9850299,3.32425 62.9850299,5.878 C62.9850299,8.47825 61.4079341,9.253 58.8428144,9.253 L57.7814371,9.253 L57.7814371,12.2785 C57.7814371,12.85675 57.8577844,13.00825 58.3884731,13.12975 L58.3884731,13.46425 L54.8982036,13.46425 Z M58.8585329,8.584 C60.2694611,8.584 60.6032934,7.444 60.6032934,5.78725 C60.6032934,4.3885 60.117515,3.4915 58.6908683,3.4915 L58.4483533,3.4915 C57.9932635,3.4915 57.7799401,3.56725 57.7799401,4.069 L57.7806886,8.584 L58.8585329,8.584 Z M67.5830838,3.4915 C66.9146707,3.4915 66.8233533,3.65875 66.8233533,4.11475 L66.8233533,6.6385 L67.4154192,6.6385 C70.3293413,6.6385 72.3922156,6.973 72.3922156,9.907 C72.3922156,12.76525 70.7836826,13.46425 68.1893713,13.46425 L63.9408683,13.46425 L63.9408683,13.12975 C64.4723054,13.00825 64.5479042,12.85675 64.5479042,12.2785 L64.5479042,4.00825 C64.5479042,3.43075 64.4723054,3.2785 63.9408683,3.157 L63.9408683,2.8225 L71.8458084,2.8225 C71.8151198,3.598 71.8151198,4.3585 71.8458084,5.13325 L71.2694611,5.13325 L71.132485,4.69225 C70.7986527,3.598 70.4191617,3.4915 69.0381737,3.4915 L67.5830838,3.4915 Z M68.0830838,12.79525 C69.4640719,12.79525 70.0097305,11.869 70.0097305,10.01425 C70.0097305,8.281 69.5389222,7.30825 67.748503,7.30825 L66.8226048,7.30825 L66.8226048,11.869 C66.8226048,12.553 67.004491,12.79525 67.7642216,12.79525 L68.0830838,12.79525 Z M80.1302395,13.46425 C80.0389222,12.886 79.7050898,11.8225 79.4169162,10.97125 L78.9618263,9.61825 L75.5935629,9.61825 C75.244012,10.6825 74.9865269,11.54875 74.8502994,12.157 C74.7290419,12.76525 74.6384731,13.22125 74.6227545,13.46425 L72.6961078,13.46425 C72.9543413,13.054 73.4386228,12.11125 74.1676647,10.33225 L76.125,5.4985 C76.5651198,4.41925 76.6399701,4.084 76.6399701,3.78025 C76.6399701,3.56725 76.5793413,3.2785 76.0329341,3.157 L76.0329341,2.8225 L79.0681138,2.8225 C79.1137725,3.14125 79.1437126,3.5065 79.4618263,4.4035 L81.6916168,10.77325 C82.1317365,12.01975 82.6025449,13.084 82.8300898,13.46425 L80.1302395,13.46425 Z M78.7342814,8.9035 L77.3083832,4.6165 L75.8360778,8.9035 L78.7342814,8.9035 Z M90.629491,7.9765 L86.5329341,7.9765 L86.5329341,12.2785 C86.5329341,12.85675 86.6092814,13.00825 87.1399701,13.12975 L87.1399701,13.46425 L83.6504491,13.46425 L83.6504491,13.12975 C84.1818862,13.00825 84.257485,12.85675 84.257485,12.2785 L84.257485,4.00825 C84.257485,3.43075 84.1818862,3.2785 83.6504491,3.157 L83.6504491,2.8225 L87.1399701,2.8225 L87.1399701,3.157 C86.6092814,3.2785 86.5329341,3.43075 86.5329341,4.00825 L86.5329341,7.27675 L90.629491,7.27675 L90.629491,4.00825 C90.629491,3.43075 90.5531437,3.2785 90.0224551,3.157 L90.0224551,2.8225 L93.511976,2.8225 L93.511976,3.157 C92.9805389,3.2785 92.9049401,3.43075 92.9049401,4.00825 L92.9049401,12.2785 C92.9049401,12.85675 92.9805389,13.00825 93.511976,13.12975 L93.511976,13.46425 L90.0224551,13.46425 L90.0224551,13.12975 C90.5531437,13.00825 90.629491,12.85675 90.629491,12.2785 L90.629491,7.9765 Z M95.8031437,4.00825 C95.8031437,3.43075 95.7267964,3.2785 95.1961078,3.157 L95.1961078,2.8225 L98.6856287,2.8225 L98.6856287,3.157 C98.1549401,3.2785 98.0785928,3.43075 98.0785928,4.00825 L98.0785928,12.2785 C98.0785928,12.85675 98.1549401,13.00825 98.6856287,13.12975 L98.6856287,13.46425 L95.1961078,13.46425 L95.1961078,13.12975 C95.7267964,13.00825 95.8031437,12.85675 95.8031437,12.2785 L95.8031437,4.00825 Z M101.447605,8.797 C102.190868,9.84625 103.920659,12.18775 105.178892,13.46425 L101.613772,13.46425 C101.355539,12.90175 100.976048,11.97475 99.869012,10.30225 L98.260479,7.885 L99.6564371,6.076 C100.491018,4.99675 101.568114,3.55225 101.856287,2.8225 L104.344311,2.8225 L104.344311,2.8375 C103.342814,3.41575 101.658683,5.11825 101.173653,5.65 L100.066617,6.83575 L101.447605,8.797 Z" id="Shape" fill-rule="nonzero"></path>
                        <rect id="Rectangle" x="27.4520958" y="16.1245" width="77.7275449" height="1.06425"></rect>
                        <path d="M21.3218563,9.6055 C21.3218563,15.26275 16.744012,19.84975 11.0965569,19.84975 C5.4491018,19.84975 0.872005988,15.26275 0.872005988,9.6055 C0.872005988,9.3745 0.880988024,9.14725 0.895958084,8.9215 L7.08682635,12.48925 L20.1991018,4.93225 C20.9161677,6.3325 21.3218563,7.92175 21.3218563,9.6055 Z M7.08607784,9.91075 L1.32260479,6.589 C1.20958084,6.9565 1.11676647,7.33375 1.04565868,7.7185 L7.08607784,11.2 L19.635479,3.967 C19.4281437,3.6535 19.2058383,3.352 18.9670659,3.06325 L7.08607784,9.91075 Z M18.1878743,2.224 C17.9041916,1.95025 17.6040419,1.693 17.2904192,1.45225 L7.08607784,7.33375 L2.21482036,4.5265 C2.03068862,4.849 1.86302395,5.18425 1.71482036,5.52775 L7.08607784,8.623 L18.1878743,2.224 Z M7.08607784,6.046 L16.2582335,0.75925 C15.875,0.53425 15.4760479,0.33325 15.0636228,0.15925 L7.08607784,4.75675 L3.53368263,2.70925 C3.28068862,2.9875 3.04341317,3.2815 2.82185629,3.5875 L7.08607784,6.046 Z" id="Shape" fill-rule="nonzero"></path>
                    </g>
                </g>
            </g>
        </g>
    </g>
</svg>
