<?xml version="1.0" encoding="utf-8"?>
<!-- Generator: Adobe Illustrator 23.0.4, SVG Export Plug-In . SVG Version: 6.00 Build 0)  -->
<svg version="1.1" id="Layer_1" xmlns="http://www.w3.org/2000/svg" xmlns:xlink="http://www.w3.org/1999/xlink" x="0px" y="0px"
	 viewBox="0 0 106 20" style="enable-background:new 0 0 106 20;" xml:space="preserve">
<style type="text/css">
	.st0{fill:#202020;}
	.st1{fill-rule:evenodd;clip-rule:evenodd;fill:#202020;}
</style>
<title>sberbank</title>
<desc>Created with Sketch.</desc>
<g id="Desktop">
	<g transform="translate(-339.000000, -1011.000000)">
		<g id="Left-Side">
			<g id="co-logo" transform="translate(215.000000, 1000.000000)">
				<g id="sberbank" transform="translate(124.000000, 11.000000)">
					<path id="Shape" class="st0" d="M34.9,12l0.3,0.6c-1,0.6-2.3,1-3.6,1c-3.2,0-5-1.7-5-5.4c0-3.5,1.5-5.6,5.2-5.6
						c1.7,0,2.8,0.4,3.1,0.5c0,0.7,0,1.5,0,2.2h-0.7l-0.2-0.7c-0.2-0.8-0.7-1.3-2.2-1.3c-2.3,0-2.8,1.7-2.8,4.5
						c0,2.7,0.6,4.8,3.2,4.8C33.5,12.7,34.3,12.4,34.9,12z M39.9,3.5c-0.7,0-0.8,0.2-0.8,0.6v2.5h0.6c2.9,0,5,0.3,5,3.3
						c0,2.9-1.6,3.6-4.2,3.6h-4.2v-0.3c0.5-0.1,0.6-0.3,0.6-0.9V4c0-0.6-0.1-0.7-0.6-0.9V2.8h7.9c0,0.8,0,1.5,0,2.3h-0.6l-0.1-0.4
						c-0.3-1.1-0.7-1.2-2.1-1.2H39.9z M40.4,12.8c1.4,0,1.9-0.9,1.9-2.8c0-1.7-0.5-2.7-2.3-2.7h-0.9v4.6c0,0.7,0.2,0.9,0.9,0.9H40.4
						z M49.3,3.5c-0.5,0-0.5,0.1-0.5,0.5v3.3h1.4c0.6,0,1.5-0.1,1.9-0.3v1.3C51.7,8,50.8,8,50.2,8h-1.4v4c0,0.6,0.3,0.9,1.7,0.9h0.3
						c1.4,0,1.7-0.1,2-1.4l0.1-0.4h0.7c0,0.8,0,1.7,0,2.5h-7.6v-0.3c0.5-0.1,0.6-0.3,0.6-0.9V4c0-0.6-0.1-0.7-0.6-0.9V2.8h7.4
						c0,0.8,0,1.5,0,2.3h-0.6l-0.1-0.4c-0.3-1.1-0.7-1.2-2.1-1.2H49.3z M54.9,13.5v-0.3c0.5-0.1,0.6-0.3,0.6-0.9V4
						c0-0.6-0.1-0.7-0.6-0.9V2.8h4.4c2.1,0,3.7,0.5,3.7,3.1c0,2.6-1.6,3.4-4.1,3.4h-1.1v3c0,0.6,0.1,0.7,0.6,0.9v0.3H54.9z
						 M58.9,8.6c1.4,0,1.7-1.1,1.7-2.8c0-1.4-0.5-2.3-1.9-2.3h-0.2c-0.5,0-0.7,0.1-0.7,0.6l0,4.5H58.9z M67.6,3.5
						c-0.7,0-0.8,0.2-0.8,0.6v2.5h0.6c2.9,0,5,0.3,5,3.3c0,2.9-1.6,3.6-4.2,3.6h-4.2v-0.3c0.5-0.1,0.6-0.3,0.6-0.9V4
						c0-0.6-0.1-0.7-0.6-0.9V2.8h7.9c0,0.8,0,1.5,0,2.3h-0.6l-0.1-0.4c-0.3-1.1-0.7-1.2-2.1-1.2H67.6z M68.1,12.8
						c1.4,0,1.9-0.9,1.9-2.8c0-1.7-0.5-2.7-2.3-2.7h-0.9v4.6c0,0.7,0.2,0.9,0.9,0.9H68.1z M80.1,13.5c-0.1-0.6-0.4-1.6-0.7-2.5
						L79,9.6h-3.4c-0.3,1.1-0.6,1.9-0.7,2.5c-0.1,0.6-0.2,1.1-0.2,1.3h-1.9c0.3-0.4,0.7-1.4,1.5-3.1l2-4.8c0.4-1.1,0.5-1.4,0.5-1.7
						c0-0.2-0.1-0.5-0.6-0.6V2.8h3c0,0.3,0.1,0.7,0.4,1.6l2.2,6.4c0.4,1.2,0.9,2.3,1.1,2.7H80.1z M78.7,8.9l-1.4-4.3l-1.5,4.3H78.7z
						 M90.6,8h-4.1v4.3c0,0.6,0.1,0.7,0.6,0.9v0.3h-3.5v-0.3c0.5-0.1,0.6-0.3,0.6-0.9V4c0-0.6-0.1-0.7-0.6-0.9V2.8h3.5v0.3
						c-0.5,0.1-0.6,0.3-0.6,0.9v3.3h4.1V4c0-0.6-0.1-0.7-0.6-0.9V2.8h3.5v0.3C93,3.3,92.9,3.4,92.9,4v8.3c0,0.6,0.1,0.7,0.6,0.9v0.3
						H90v-0.3c0.5-0.1,0.6-0.3,0.6-0.9V8z M95.8,4c0-0.6-0.1-0.7-0.6-0.9V2.8h3.5v0.3c-0.5,0.1-0.6,0.3-0.6,0.9v8.3
						c0,0.6,0.1,0.7,0.6,0.9v0.3h-3.5v-0.3c0.5-0.1,0.6-0.3,0.6-0.9V4z M101.4,8.8c0.7,1,2.5,3.4,3.7,4.7h-3.6
						c-0.3-0.6-0.6-1.5-1.7-3.2l-1.6-2.4l1.4-1.8c0.8-1.1,1.9-2.5,2.2-3.3h2.5v0c-1,0.6-2.7,2.3-3.2,2.8l-1.1,1.2L101.4,8.8z"/>
					<rect id="Rectangle" x="27.5" y="16.1" class="st1" width="77.7" height="1.1"/>
					<path class="st0" d="M21.3,9.6c0,5.7-4.6,10.2-10.2,10.2S0.9,15.3,0.9,9.6c0-0.2,0-0.5,0-0.7l6.2,3.6l13.1-7.6
						C20.9,6.3,21.3,7.9,21.3,9.6z M7.1,9.9L1.3,6.6C1.2,7,1.1,7.3,1,7.7l6,3.5L19.6,4c-0.2-0.3-0.4-0.6-0.7-0.9L7.1,9.9z M18.2,2.2
						c-0.3-0.3-0.6-0.5-0.9-0.8L7.1,7.3L2.2,4.5C2,4.8,1.9,5.2,1.7,5.5l5.4,3.1L18.2,2.2z M7.1,6l9.2-5.3c-0.4-0.2-0.8-0.4-1.2-0.6
						l-8,4.6l-3.6-2C3.3,3,3,3.3,2.8,3.6L7.1,6z"/>
				</g>
			</g>
		</g>
	</g>
</g>
</svg>
