<?xml version="1.0" encoding="UTF-8"?>
<svg width="18px" height="18px" viewBox="0 0 18 18" version="1.1" xmlns="http://www.w3.org/2000/svg" xmlns:xlink="http://www.w3.org/1999/xlink">
    <!-- Generator: Sketch 52.2 (67145) - http://www.bohemiancoding.com/sketch -->
    <title>Shape</title>
    <desc>Created with Sketch.</desc>
    <g id="Symbols" stroke="none" stroke-width="1" fill="none" fill-rule="evenodd">
        <g id="date-and-likes" transform="translate(-309.000000, -27.000000)" fill="#E7E7E7" fill-rule="nonzero">
            <g id="Group-2">
                <g id="Group-3" transform="translate(309.000000, 24.000000)">
                    <path d="M14.4878049,3 L3.51219512,3 C1.57246332,3 3.89931989e-16,4.58172116 0,6.53287309 L0,13.5986193 C3.89931989e-16,15.5497712 1.57246332,17.1314924 3.51219512,17.1314924 L7.10341463,17.1314924 L10.6485366,20.6467011 C10.8701337,20.8707342 11.1707043,20.9977013 11.484878,20.9999884 C11.6585796,21.000806 11.8297769,20.9583237 11.9831707,20.8763379 C12.3483796,20.6807636 12.5580275,20.280875 12.5121951,19.867261 L12.4397561,17.1314924 L14.4878049,17.1314924 C16.4275367,17.1314924 18,15.5497712 18,13.5986193 L18,6.53287309 C18,4.58172116 16.4275367,3 14.4878049,3 Z M16.2439024,13.5986193 C16.2439024,14.0671074 16.0588855,14.5164074 15.7295534,14.8476785 C15.4002212,15.1789497 14.9535509,15.3650558 14.4878049,15.3650558 L11.5331707,15.3650558 C11.2960531,15.3649656 11.0689792,15.4613454 10.9036011,15.6322719 C10.7382229,15.8031984 10.6486012,16.0341391 10.655122,16.2725626 L10.7056098,18.224475 L8.07146341,15.6211891 C7.90954421,15.459615 7.6914763,15.3677565 7.46341463,15.3650558 L3.51219512,15.3650558 C2.54232922,15.3650558 1.75609756,14.5741953 1.75609756,13.5986193 L1.75609756,6.53287309 C1.75609756,5.55729713 2.54232922,4.76643655 3.51219512,4.76643655 L14.4878049,4.76643655 C15.4576708,4.76643655 16.2439024,5.55729713 16.2439024,6.53287309 L16.2439024,13.5986193 Z" id="Shape" transform="translate(9.000000, 12.000000) scale(-1, 1) translate(-9.000000, -12.000000) "></path>
                </g>
            </g>
        </g>
    </g>
</svg>