<?xml version="1.0" encoding="UTF-8"?>
<svg width="18px" height="16px" viewBox="0 0 18 16" version="1.1" xmlns="http://www.w3.org/2000/svg" xmlns:xlink="http://www.w3.org/1999/xlink">
    <!-- Generator: Sketch 52.2 (67145) - http://www.bohemiancoding.com/sketch -->
    <title>Shape</title>
    <desc>Created with Sketch.</desc>
    <g id="Symbols" stroke="none" stroke-width="1" fill="none" fill-rule="evenodd">
        <g id="date-and-likes" transform="translate(-382.000000, -27.000000)" fill="#E7E7E7" fill-rule="nonzero">
            <g id="Group-2">
                <g id="Group" transform="translate(382.000000, 24.000000)">
                    <path d="M9.9021717,3.5533685 C10.7774107,3.13710641 11.5409105,2.99999878 12.7253707,3.0000128 C15.7565041,3.01220966 18,5.49613468 18,8.66020671 C18,11.0752775 16.6141378,13.4081887 14.0327674,15.6640514 C12.6778141,16.8481467 10.9478275,18.0199404 9.70887027,18.6433283 L9,19 L8.29112973,18.6433283 C7.05217246,18.0199404 5.32218595,16.8481467 3.9672326,15.6640514 C1.38586221,13.4081887 0,11.0752775 0,8.66020671 C0,5.46228596 2.22253893,3 5.28099173,3 C6.42295575,3 7.2256242,3.15007383 8.1178452,3.57885686 C8.42848257,3.72814279 8.72033891,3.90522062 8.99179437,4.10961099 C9.27412388,3.89308189 9.57812932,3.70748247 9.9021717,3.5533685 Z M12.7440081,14.3063967 C14.9003606,12.4213606 16,10.5696802 16,8.77045998 C16,6.55478552 14.5130497,4.90796128 12.538176,4.90000569 C11.6343378,4.90000017 11.1356779,4.9895768 10.5414961,5.27225808 C10.1760079,5.44613871 9.85174833,5.68087754 9.56890571,5.97918102 L9.00181821,6.57726691 L8.42952427,5.9838845 C8.15290332,5.69707028 7.83333777,5.4675568 7.47177151,5.29374044 C6.85965429,4.99947631 6.32777468,4.9 5.46464646,4.9 C3.46505432,4.9 2,6.52360511 2,8.77045998 C2,10.5696802 3.09963943,12.4213606 5.25599192,14.3063967 C6.43163722,15.33412 7.94302979,16.3611739 9,16.9 C10.0569702,16.3611739 11.5683628,15.33412 12.7440081,14.3063967 Z" id="Shape"></path>
                </g>
            </g>
        </g>
    </g>
</svg>