<svg xmlns="http://www.w3.org/2000/svg" width="54" height="54" viewBox="0 0 54 54">
    <g fill="none" fill-rule="evenodd" opacity=".8">
        <path stroke="#A0CEE9" stroke-width="1.5" d="M1 27C1 12.64 12.64 1 27 1s26 11.64 26 26-11.64 26-26 26S1 41.36 1 27z"/>
        <path fill="#A0CEE9" d="M26.74 23.99l.039.649-.65-.08c-2.367-.304-4.435-1.337-6.191-3.071l-.859-.86-.22.635c-.469 1.416-.17 2.913.806 3.919.52.556.403.635-.494.304-.313-.105-.586-.185-.612-.145-.09.092.221 1.297.468 1.774.339.662 1.028 1.31 1.782 1.695l.638.304-.755.014c-.728 0-.754.013-.676.29.26.862 1.288 1.775 2.432 2.172l.806.278-.702.424a7.276 7.276 0 0 1-3.486.98c-.585.013-1.066.066-1.066.106 0 .132 1.587.874 2.51 1.165 2.77.86 6.06.49 8.532-.98 1.756-1.046 3.512-3.125 4.331-5.137.442-1.073.884-3.032.884-3.972 0-.61.04-.689.768-1.417.429-.424.832-.887.91-1.02.13-.251.117-.251-.546-.026-1.105.397-1.262.344-.715-.252.403-.423.884-1.191.884-1.416 0-.04-.195.026-.416.145-.234.133-.754.331-1.145.45l-.702.225-.637-.436c-.351-.239-.846-.504-1.106-.583-.663-.185-1.678-.159-2.276.053-1.626.596-2.653 2.132-2.536 3.813z"/>
    </g>
</svg>
