<svg xmlns="http://www.w3.org/2000/svg" width="54" height="54" viewBox="0 0 54 54">
    <g fill="none" fill-rule="evenodd" opacity=".8">
        <path stroke="#A0CEE9" stroke-width="1.5" d="M1 27C1 12.64 12.64 1 27 1s26 11.64 26 26-11.64 26-26 26S1 41.36 1 27z"/>
        <path fill="#A0CEE9" d="M27.432 32.954s.343-.039.518-.23c.161-.175.156-.507.156-.507s-.022-1.545.685-1.773c.697-.225 1.592 1.494 2.542 2.155.717.5 1.262.39 1.262.39l2.538-.035s1.327-.083.698-1.142c-.052-.087-.367-.784-1.887-2.215-1.592-1.499-1.378-1.256.538-3.849 1.168-1.579 1.634-2.542 1.488-2.954-.138-.395-.997-.29-.997-.29l-2.857.018s-.212-.03-.369.066c-.153.093-.252.311-.252.311s-.452 1.221-1.055 2.26c-1.272 2.192-1.78 2.308-1.989 2.173-.484-.318-.363-1.275-.363-1.955 0-2.125.318-3.01-.618-3.24-.31-.076-.54-.126-1.334-.135-1.02-.01-1.881.004-2.37.246-.326.162-.576.522-.423.543.189.025.616.117.843.43.293.404.282 1.312.282 1.312s.168 2.5-.393 2.81c-.385.214-.912-.22-2.047-2.21-.58-1.018-1.02-2.144-1.02-2.144s-.084-.21-.236-.324c-.183-.136-.438-.179-.438-.179l-2.715.018s-.408.011-.557.192c-.133.159-.01.49-.01.49s2.125 5.046 4.532 7.59c2.207 2.33 4.712 2.178 4.712 2.178h1.136z"/>
    </g>
</svg>
